

Release info:

General
Format                                   : Matroska
Format version                           : Version 2
File size                                : 646 MiB
Duration                                 : 1h 45mn
Overall bit rate                         : 859 Kbps

Video
ID                                       : 1
Format                                   : MPEG-4 Visual
Format profile                           : Simple@L3
Format settings, BVOP                    : No
Format settings, QPel                    : No
Format settings, GMC                     : No warppoints
Format settings, Matrix                  : Default (H.263)
Codec ID                                 : V_MS/VFW/FOURCC / XVID
Codec ID/Hint                            : XviD
Duration                                 : 1h 45mn
Bit rate                                 : 714 Kbps
Width                                    : 640 pixels
Height                                   : 272 pixels
Display aspect ratio                     : 2.35:1
Frame rate mode                          : Constant
Frame rate                               : 25.000 fps
Color space                              : YUV
Chroma subsampling                       : 4:2:0
Bit depth                                : 8 bits
Scan type                                : Progressive
Compression mode                         : Lossy
Bits/(Pixel*Frame)                       : 0.164
Stream size                              : 537 MiB (83%)
Language                                 : English
Default                                  : Yes
Forced                                   : No

Audio
ID                                       : 2
Format                                   : MPEG Audio
Format version                           : Version 1
Format profile                           : Layer 3
Mode                                     : Joint stereo
Mode extension                           : MS Stereo
Muxing mode                              : Header stripping
Codec ID                                 : A_MPEG/L3
Codec ID/Hint                            : MP3
Duration                                 : 1h 45mn
Bit rate mode                            : Constant
Bit rate                                 : 128 Kbps
Channel(s)                               : 2 channels
Sampling rate                            : 48.0 KHz
Compression mode                         : Lossy
Stream size                              : 96.3 MiB (15%)
Language                                 : English
Default                                  : Yes
Forced                                   : No

Source:
credit to original movie ripper NYDIC (Thanks)

IMDB Info:

A true-crime writer finds a cache of 8mm "snuff" films that suggest the murder he is currently researching is the work of a serial killer whose career dates back to the 1960s.

Director: Scott Derrickson
Writers: Scott Derrickson, C. Robert Cargill
Stars: Ethan Hawke, Juliet Rylance and James Ransone 

Genres: Horror | Mystery | Thriller
 
http://www.imdb.com/title/tt1922777/

Screen Shot:
 
http://www.shotpix.com/images/67024959942023207623.png 
http://www.shotpix.com/images/49454535450074595335.png 
http://www.shotpix.com/images/69872645977771875986.png 
http://www.shotpix.com/images/50386803984868316532.png 
http://www.shotpix.com/images/45626466320895975350.png 
http://www.shotpix.com/images/56582300914603937649.png